<?xml version="1.0" standalone="yes"?>
<svg xmlns="http://www.w3.org/2000/svg" width="221" height="52">
<path style="fill:#ffffff; stroke:none;" d="M0.5 0.5C1.44489 -0.331501 9.41383 1.21654 10 5C11.2729 13.2159 10 22.6714 10 31C10 33.3965 8.9517 38.9052 11.1667 40.5C16.1799 44.1095 33.7464 41 40 41C43.8743 41 49.2808 39.8939 50 45C50.8833 51.2711 45.5103 51 41 51L12 51C10.7182 51 0.333333 50.6891 0.333333 51C0.333333 52.6806 5.93475 52 7 52L29 52L75 52C77.6769 52 88.5347 53.5938 90.3333 51.6667C89.64 52.4095 84.0492 46.398 88.1667 44.8333C94.0065 42.6142 100.565 50.7498 107 44.8333C119.294 33.5305 90.3877 25.854 87.3333 18C85.1502 12.3861 86.9713 6.35246 92 3C92.592 2.60533 97.3041 0.302044 97.3333 0.333332C94.9821 -2.18585 79.5918 0 76 0L20 0C16.0572 0 3.44297 -2.08982 0.5 0.5z"/>
<path style="fill:#ccebf5; stroke:none;" d="M98 0L99 1L98 0z"/>
<path style="fill:#bbe4f1; stroke:none;" d="M99 0L100 1L99 0z"/>
<path style="fill:#88cfe7; stroke:none;" d="M100.667 0.333332L104.333 0.666668L100.667 0.333332z"/>
<path style="fill:#bbe4f1; stroke:none;" d="M105.667 0.333332L106.333 0.666668L105.667 0.333332z"/>
<path style="fill:#ddf1f8; stroke:none;" d="M107 0L108 1L107 0z"/>
<path style="fill:#ffffff; stroke:none;" d="M108.667 0.333332C110.376 -1.37566 117.669 5.32901 112.833 7.16667C109.069 8.59729 88.2969 -0.505054 93.3333 14C97.0626 24.7402 116.232 23.169 117 37C117.269 41.834 114.055 47.078 110 49.5C109.603 49.7374 105.239 51.1476 105.667 51.6667C106.741 52.9716 113.368 52 115 52L144 52L194 52C196.121 52 209.387 53.3567 210.333 51.6667C210.433 51.4879 206.173 45.5575 206 44C205.274 37.4689 208.468 27.1537 205.833 21.1667C204.867 18.9695 200.333 21.0782 200.333 18C200.333 15.0716 204.183 16.8166 205.5 15.5C207.492 13.5078 204.737 5.14651 210.833 6C214.818 6.55781 208.606 20.7734 219.833 15.8333C221.71 15.0078 222.047 2.04714 220.5 0.5C217.638 -2.36226 202.132 0 198 0L133 0C128.771 0 111.534 -2.53403 108.667 0.333332z"/>
<path style="fill:#0099cc; stroke:none;" d="M1.6034 2.02778C-2.15068 4.99094 0 17.6268 0 22C0 28.2225 -2.90618 44.4296 1.02778 49.3966C3.02479 51.918 8.19701 50.9998 11 51L38 51C40.9756 51 46.8589 52.074 48.9722 49.3966C51.3888 46.335 49.5766 41.7675 45.9414 41.1481C36.8883 39.6057 20.0673 45.1434 12.3179 39.9722C6.35793 35.9952 10.2732 13.6364 9.98071 7.00463C9.79585 2.8131 5.98589 -1.4314 1.6034 2.02778M21.6034 2.02778C13.57 8.39408 29.7037 11.4045 29.7037 16C29.7037 21.8477 23.545 19.4035 21.0278 22.6034C17.4317 27.1748 22.715 32.7995 27.6821 30.3958C30.7475 28.9125 29.392 24.7843 31.6034 22.6042C32.7247 21.4987 34.4177 21.0968 35.946 21.3765C40.7955 22.2641 40.7098 36.0395 48.3966 29.9722C51.3518 27.6396 50 20.3101 50 17C50 13.2687 51.4234 5.6983 48.9722 2.6034C46.362 -0.692223 24.8481 -0.543556 21.6034 2.02778M61.0231 2.03241C58.8821 4.17344 60 10.2448 60 13C60 21.7901 56.1902 41.8401 60.6034 49.3966C62.2824 52.2715 79.6104 52.3341 81.9136 50.0309C84.7038 47.2407 67.8108 47.136 66.6034 44.6821C62.5942 36.5344 66.0041 19.0816 66 10C65.9991 8.09213 65.778 -2.72243 61.0231 2.03241z"/>
<path style="fill:#ddf1f8; stroke:none;" d="M94 1L95 2L94 1z"/>
<path style="fill:#88cfe7; stroke:none;" d="M95 1L96 2L95 1z"/>
<path style="fill:#44b4da; stroke:none;" d="M96 1L97 2L96 1z"/>
<path style="fill:#0099cc; stroke:none;" d="M97 1.53318C88.1687 3.68327 84.1401 13.8017 90.2785 20.9066C94.5576 25.8594 101.13 27.1889 105.891 31.3904C108.371 33.5787 110.141 36.5865 109.728 39.9961C108.054 53.7896 94.5629 42.6509 89.0471 46.3372C86.9457 47.7415 89.833 50.1432 91.1481 50.5664C94.9934 51.8038 101.113 51.3695 105 50.4707C107.395 49.9168 109.877 48.9337 111.786 47.3511C131.193 31.2597 92.79 23.3301 92.5069 12C92.1761 -1.24411 107.465 8.53279 111.953 5.66589C114.101 4.29369 111.044 2.12622 109.852 1.72377C106.118 0.463161 100.794 0.609539 97 1.53318z"/>
<path style="fill:#11a0cf; stroke:none;" d="M109 1L110 2L109 1z"/>
<path style="fill:#44b4da; stroke:none;" d="M110 1L111 2L110 1z"/>
<path style="fill:#77c9e4; stroke:none;" d="M111 1L112 2L111 1z"/>
<path style="fill:#99d6eb; stroke:none;" d="M112 1L113 2L112 1z"/>
<path style="fill:#eef8fc; stroke:none;" d="M113 1L114 2L113 1z"/>
<path style="fill:#0099cc; stroke:none;" d="M123.5 1.5C121.968 3.03182 123 8.95147 123 11L123 40C123 42.7255 121.536 50.4227 125 51C130.273 51.8788 129 46.5448 129 43C129 35.3998 128.145 23.9922 137 20.5C147.062 16.5319 144 39.8596 144 45C144 47.3766 145.153 54.847 149.5 50.5C150.926 49.0744 150 43.8847 150 42C150 34.6366 152.46 19.3298 143 16.8333C139.378 15.8775 135.587 17.4133 133 20C132.294 20.7057 130.212 25 129.333 25C128.733 25 129 19.5582 129 19C129 16.6367 130.29 -5.29005 123.5 1.5M163.024 2.03164C160.425 4.63035 164.016 9.92862 166.976 6.96836C169.575 4.36968 165.984 -0.928658 163.024 2.03164z"/>
<path style="fill:#aaddee; stroke:none;" d="M188 1L189 2L188 1z"/>
<path style="fill:#77c9e4; stroke:none;" d="M189 1L190 2L189 1z"/>
<path style="fill:#44b4da; stroke:none;" d="M190 1L191 2L190 1z"/>
<path style="fill:#22a7d3; stroke:none;" d="M191 1L192 2L191 1z"/>
<path style="fill:#0099cc; stroke:none;" d="M192 1.50849C183.722 2.69691 184.737 8.24511 180.861 13.6829C179.782 15.1965 175.637 16.0345 175.636 18C175.634 20.0344 179.524 20.4919 180.397 22.3171C181.803 25.2541 181 29.8302 181 33C181 36.197 178.909 52.0645 184.741 50.6235C190.151 49.2866 185.945 27.7719 187.318 23.1481C188.703 18.4812 194.739 21.9152 196.248 18.5448C197.407 15.9576 187.536 16.3024 187.207 11.9421C186.486 2.39397 195.251 7.49411 198.824 4.76775C201.531 2.70218 192.912 1.37759 192 1.50849z"/>
<path style="fill:#44b4da; stroke:none;" d="M196 1L197 2L196 1z"/>
<path style="fill:#55bbdd; stroke:none;" d="M197 1L198 2L197 1z"/>
<path style="fill:#88cfe7; stroke:none;" d="M198.667 1.66667L199.333 2.33333L198.667 1.66667z"/>
<path style="fill:#ccebf5; stroke:none;" d="M199 1L200 2L199 1z"/>
<path style="fill:#bbe4f1; stroke:none;" d="M92 2L93 3L92 2z"/>
<path style="fill:#44b4da; stroke:none;" d="M93 2L94 3L93 2z"/>
<path style="fill:#bbe4f1; stroke:none;" d="M113.333 2.66667L113.667 6.33333L113.333 2.66667z"/>
<path style="fill:#88cfe7; stroke:none;" d="M186 2L187 3L186 2z"/>
<path style="fill:#11a0cf; stroke:none;" d="M187 2L188 3L187 2z"/>
<path style="fill:#77c9e4; stroke:none;" d="M91 3L92 4L91 3z"/>
<path style="fill:#eef8fc; stroke:none;" d="M184 3.66667L184 4.33333L184 3.66667z"/>
<path style="fill:#33add6; stroke:none;" d="M185 3L186 4L185 3z"/>
<path style="fill:#eef8fc; stroke:none;" d="M89 4L90 5L89 4z"/>
<path style="fill:#33add6; stroke:none;" d="M90 4L91 5L90 4M98 4L99 5L98 4z"/>
<path style="fill:#77c9e4; stroke:none;" d="M99 4L100 5L99 4z"/>
<path style="fill:#88cfe7; stroke:none;" d="M100.667 4.33333L102.333 4.66667L100.667 4.33333z"/>
<path style="fill:#66c2e0; stroke:none;" d="M103 4L104 5L103 4z"/>
<path style="fill:#44b4da; stroke:none;" d="M104 4L105 5L104 4z"/>
<path style="fill:#11a0cf; stroke:none;" d="M105 4L106 5L105 4z"/>
<path style="fill:#33add6; stroke:none;" d="M184 4L185 5L184 4z"/>
<path style="fill:#44b4da; stroke:none;" d="M191 4L192 5L191 4z"/>
<path style="fill:#77c9e4; stroke:none;" d="M192 4L193 5L192 4z"/>
<path style="fill:#88cfe7; stroke:none;" d="M193.667 4.33333L194.333 4.66667L193.667 4.33333z"/>
<path style="fill:#77c9e4; stroke:none;" d="M195 4L196 5L195 4z"/>
<path style="fill:#33add6; stroke:none;" d="M196 4L197 5L196 4z"/>
<path style="fill:#44b4da; stroke:none;" d="M89 5L90 6L89 5z"/>
<path style="fill:#11a0cf; stroke:none;" d="M95 5L96 6L95 5z"/>
<path style="fill:#88cfe7; stroke:none;" d="M96 5L97 6L96 5z"/>
<path style="fill:#ddf1f8; stroke:none;" d="M97 5L98 6L97 5z"/>
<path style="fill:#ccebf5; stroke:none;" d="M106 5L107 6L106 5z"/>
<path style="fill:#88cfe7; stroke:none;" d="M107 5L108 6L107 5z"/>
<path style="fill:#55bbdd; stroke:none;" d="M108 5L109 6L108 5z"/>
<path style="fill:#77c9e4; stroke:none;" d="M183 5L184 6L183 5z"/>
<path style="fill:#55bbdd; stroke:none;" d="M189 5L190 6L189 5z"/>
<path style="fill:#ddf1f8; stroke:none;" d="M190 5L191 6L190 5M197 5L198 6L197 5z"/>
<path style="fill:#eef8fc; stroke:none;" d="M210 5L211 6L210 5z"/>
<path style="fill:#99d6eb; stroke:none;" d="M211 5L212 6L211 5z"/>
<path style="fill:#88cfe7; stroke:none;" d="M88 6L89 7L88 6z"/>
<path style="fill:#33add6; stroke:none;" d="M94 6L95 7L94 6z"/>
<path style="fill:#ccebf5; stroke:none;" d="M95 6L96 7L95 6z"/>
<path style="fill:#eef8fc; stroke:none;" d="M109 6L110 7L109 6z"/>
<path style="fill:#99d6eb; stroke:none;" d="M110 6L111 7L110 6z"/>
<path style="fill:#44b4da; stroke:none;" d="M111 6L112 7L111 6z"/>
<path style="fill:#ddf1f8; stroke:none;" d="M182 6L183 7L182 6z"/>
<path style="fill:#66c2e0; stroke:none;" d="M188 6L189 7L188 6z"/>
<path style="fill:#aaddee; stroke:none;" d="M209 6L210 7L209 6z"/>
<path style="fill:#11a0cf; stroke:none;" d="M210 6L211 7L210 6z"/>
<path style="fill:#0099cc; stroke:none;" d="M210.416 7.34568C209.482 7.36681 200.636 17.315 200.636 18C200.636 20.2541 205.334 21.0093 205.852 24.0586C207.412 33.2491 201.967 53.2942 217.847 50.8565C218.367 50.7766 220.46 50.4494 220.079 49.4406C219.45 47.7761 214.4 47.8871 213.028 45.7207C210.581 41.8573 210.587 26.4163 212.603 22.3179C213.899 19.6835 220.364 20.7548 220.364 18C220.364 15.4427 215.074 16.1451 213.603 14.9722C211.879 13.5967 212.649 7.29515 210.416 7.34568z"/>
<path style="fill:#eef8fc; stroke:none;" d="M87 7L88 8L87 7z"/>
<path style="fill:#11a0cf; stroke:none;" d="M88 7L89 8L88 7z"/>
<path style="fill:#22a7d3; stroke:none;" d="M93 7L94 8L93 7z"/>
<path style="fill:#eef8fc; stroke:none;" d="M94 7L95 8L94 7z"/>
<path style="fill:#ccebf5; stroke:none;" d="M112 7L113 8L112 7z"/>
<path style="fill:#ddf1f8; stroke:none;" d="M113 7L114 8L113 7z"/>
<path style="fill:#88cfe7; stroke:none;" d="M182 7L183 8L182 7z"/>
<path style="fill:#22a7d3; stroke:none;" d="M187 7L188 8L187 7z"/>
<path style="fill:#ddf1f8; stroke:none;" d="M207 7L208 8L207 7z"/>
<path style="fill:#55bbdd; stroke:none;" d="M208 7L209 8L208 7z"/>
<path style="fill:#88cfe7; stroke:none;" d="M87 8L88 9L87 8z"/>
<path style="fill:#aaddee; stroke:none;" d="M93 8L94 9L93 8z"/>
<path style="fill:#44b4da; stroke:none;" d="M182 8L183 9L182 8z"/>
<path style="fill:#77c9e4; stroke:none;" d="M187 8L188 9L187 8z"/>
<path style="fill:#aaddee; stroke:none;" d="M206 8L207 9L206 8z"/>
<path style="fill:#11a0cf; stroke:none;" d="M207 8L208 9L207 8z"/>
<path style="fill:#44b4da; stroke:none;" d="M87 9L88 10L87 9z"/>
<path style="fill:#22a7d3; stroke:none;" d="M92 9L93 10L92 9z"/>
<path style="fill:#11a0cf; stroke:none;" d="M182 9L183 10L182 9z"/>
<path style="fill:#bbe4f1; stroke:none;" d="M187 9L188 10L187 9z"/>
<path style="fill:#88cfe7; stroke:none;" d="M206 9L207 10L206 9z"/>
<path style="fill:#77c9e4; stroke:none;" d="M92 10L93 11L92 10z"/>
<path style="fill:#eef8fc; stroke:none;" d="M187 10L188 11L187 10z"/>
<path style="fill:#ccebf5; stroke:none;" d="M86 11L87 12L86 11z"/>
<path style="fill:#88cfe7; stroke:none;" d="M92.3333 11.6667L92.6667 12.3333L92.3333 11.6667z"/>
<path style="fill:#ddf1f8; stroke:none;" d="M181 11L182 12L181 11z"/>
<path style="fill:#bbe4f1; stroke:none;" d="M86.3333 12.6667L86.6667 13.3333L86.3333 12.6667M181 12L182 13L181 12z"/>
<path style="fill:#55bbdd; stroke:none;" d="M92 13L93 14L92 13z"/>
<path style="fill:#5bbdde; stroke:none;" d="M181 13L182 14L181 13z"/>
<path style="fill:#ccebf5; stroke:none;" d="M86 14L87 15L86 14z"/>
<path style="fill:#11a0cf; stroke:none;" d="M92 14L93 15L92 14z"/>
<path style="fill:#eef8fc; stroke:none;" d="M93 14L94 15L93 14z"/>
<path style="fill:#88cfe7; stroke:none;" d="M93 15L94 16L93 15z"/>
<path style="fill:#33add6; stroke:none;" d="M87 16L88 17L87 16z"/>
<path style="fill:#ccebf5; stroke:none;" d="M94.6667 16.6667L95.3333 17.3333L94.6667 16.6667z"/>
<path style="fill:#eef8fc; stroke:none;" d="M136 16L137 17L136 16z"/>
<path style="fill:#99d6eb; stroke:none;" d="M137 16L138 17L137 16z"/>
<path style="fill:#55bbdd; stroke:none;" d="M138 16L139 17L138 16z"/>
<path style="fill:#22a7d3; stroke:none;" d="M139 16L140 17L139 16z"/>
<path style="fill:#11a0cf; stroke:none;" d="M141 16L142 17L141 16z"/>
<path style="fill:#44b4da; stroke:none;" d="M142 16L143 17L142 16z"/>
<path style="fill:#77c9e4; stroke:none;" d="M143 16L144 17L143 16z"/>
<path style="fill:#ccebf5; stroke:none;" d="M144 16L145 17L144 16z"/>
<path style="fill:#0099cc; stroke:none;" d="M163.023 17.0324C159.159 20.8967 161.541 41.5137 162.059 46.9414C162.278 49.2417 164.45 52.4942 166.977 49.9676C170.841 46.1033 168.459 25.4863 167.941 20.0586C167.722 17.7583 165.55 14.5058 163.023 17.0324z"/>
<path style="fill:#88cfe7; stroke:none;" d="M87 17L88 18L87 17z"/>
<path style="fill:#11a0cf; stroke:none;" d="M94 17L95 18L94 17z"/>
<path style="fill:#88cfe7; stroke:none;" d="M135 17L136 18L135 17z"/>
<path style="fill:#11a0cf; stroke:none;" d="M136 17L137 18L136 17z"/>
<path style="fill:#55bbdd; stroke:none;" d="M145 17L146 18L145 17z"/>
<path style="fill:#eef8fc; stroke:none;" d="M146.667 17.6667L147.333 18.3333L146.667 17.6667z"/>
<path style="fill:#ddf1f8; stroke:none;" d="M87 18L88 19L87 18z"/>
<path style="fill:#11a0cf; stroke:none;" d="M95 18L96 19L95 18z"/>
<path style="fill:#99d6eb; stroke:none;" d="M96 18L97 19L96 18z"/>
<path style="fill:#eef8fc; stroke:none;" d="M133 18.6667L133 19.3333L133 18.6667z"/>
<path style="fill:#44b4da; stroke:none;" d="M134 18L135 19L134 18z"/>
<path style="fill:#33add6; stroke:none;" d="M146 18L147 19L146 18z"/>
<path style="fill:#77c9e4; stroke:none;" d="M88 19L89 20L88 19z"/>
<path style="fill:#55bbdd; stroke:none;" d="M97 19L98 20L97 19z"/>
<path style="fill:#ddf1f8; stroke:none;" d="M98 19L99 20L98 19z"/>
<path style="fill:#33add6; stroke:none;" d="M133 19L134 20L133 19M147 19L148 20L147 19z"/>
<path style="fill:#eef8fc; stroke:none;" d="M88 20L89 21L88 20z"/>
<path style="fill:#22a7d3; stroke:none;" d="M89 20L90 21L89 20z"/>
<path style="fill:#88cfe7; stroke:none;" d="M99 20L100 21L99 20z"/>
<path style="fill:#eef8fc; stroke:none;" d="M100 20L101 21L100 20z"/>
<path style="fill:#55bbdd; stroke:none;" d="M132 20L133 21L132 20z"/>
<path style="fill:#11a0cf; stroke:none;" d="M136 20L137 21L136 20z"/>
<path style="fill:#55bbdd; stroke:none;" d="M137 20L138 21L137 20z"/>
<path style="fill:#88cfe7; stroke:none;" d="M138.667 20.3333L139.333 20.6667L138.667 20.3333z"/>
<path style="fill:#66c2e0; stroke:none;" d="M140 20L141 21L140 20z"/>
<path style="fill:#11a0cf; stroke:none;" d="M141 20L142 21L141 20z"/>
<path style="fill:#99d6eb; stroke:none;" d="M148 20L149 21L148 20z"/>
<path style="fill:#ffffff; stroke:none;" d="M213.028 21.0278C210.162 23.8932 211.143 40.3254 212.603 43.9414C213.588 46.3776 216.808 48.8319 219.397 46.9529C222.858 44.4409 221.976 26.1852 220.682 22.3179C219.799 19.6773 214.916 19.1395 213.028 21.0278z"/>
<path style="fill:#ccebf5; stroke:none;" d="M89.6667 21.6667L90.3333 22.3333L89.6667 21.6667z"/>
<path style="fill:#11a0cf; stroke:none;" d="M90 21L91 22L90 21M100 21L101 22L100 21z"/>
<path style="fill:#88cfe7; stroke:none;" d="M101 21L102 22L101 21z"/>
<path style="fill:#eef8fc; stroke:none;" d="M102 21L103 22L102 21z"/>
<path style="fill:#88cfe7; stroke:none;" d="M131 21L132 22L131 21z"/>
<path style="fill:#77c9e4; stroke:none;" d="M135 21L136 22L135 21z"/>
<path style="fill:#eef8fc; stroke:none;" d="M136 21L137 22L136 21M141 21L142 22L141 21z"/>
<path style="fill:#55bbdd; stroke:none;" d="M142 21L143 22L142 21z"/>
<path style="fill:#33add6; stroke:none;" d="M148 21L149 22L148 21z"/>
<path style="fill:#11a0cf; stroke:none;" d="M91 22L92 23L91 22M102 22L103 23L102 22z"/>
<path style="fill:#88cfe7; stroke:none;" d="M103 22L104 23L103 22z"/>
<path style="fill:#ddf1f8; stroke:none;" d="M130 22L131 23L130 22z"/>
<path style="fill:#11a0cf; stroke:none;" d="M133 22L134 23L133 22z"/>
<path style="fill:#aaddee; stroke:none;" d="M134 22L135 23L134 22z"/>
<path style="fill:#22a7d3; stroke:none;" d="M143 22L144 23L143 22z"/>
<path style="fill:#ddf1f8; stroke:none;" d="M149 22L150 23L149 22M91 23L92 24L91 23z"/>
<path style="fill:#44b4da; stroke:none;" d="M92 23L93 24L92 23z"/>
<path style="fill:#22a7d3; stroke:none;" d="M104 23L105 24L104 23z"/>
<path style="fill:#99d6eb; stroke:none;" d="M105 23L106 24L105 23z"/>
<path style="fill:#44b4da; stroke:none;" d="M130 23L131 24L130 23z"/>
<path style="fill:#bbe4f1; stroke:none;" d="M133 23L134 24L133 23z"/>
<path style="fill:#99d6eb; stroke:none;" d="M143 23L144 24L143 23z"/>
<path style="fill:#bbe4f1; stroke:none;" d="M149 23L150 24L149 23z"/>
<path style="fill:#88cfe7; stroke:none;" d="M93 24L94 25L93 24z"/>
<path style="fill:#11a0cf; stroke:none;" d="M94 24L95 25L94 24z"/>
<path style="fill:#33add6; stroke:none;" d="M106 24L107 25L106 24z"/>
<path style="fill:#bbe4f1; stroke:none;" d="M107 24L108 25L107 24M129 24L130 25L129 24z"/>
<path style="fill:#88cfe7; stroke:none;" d="M132 24L133 25L132 24z"/>
<path style="fill:#eef8fc; stroke:none;" d="M143 24L144 25L143 24z"/>
<path style="fill:#7fcce5; stroke:none;" d="M149 24L150 25L149 24z"/>
<path style="fill:#eef8fc; stroke:none;" d="M94 25L95 26L94 25z"/>
<path style="fill:#66c2e0; stroke:none;" d="M95 25L96 26L95 25M108 25L109 26L108 25z"/>
<path style="fill:#eef8fc; stroke:none;" d="M109 25L110 26L109 25z"/>
<path style="fill:#66c2e0; stroke:none;" d="M129 25L130 26L129 25z"/>
<path style="fill:#33add6; stroke:none;" d="M131 25L132 26L131 25z"/>
<path style="fill:#26a8d4; stroke:none;" d="M149 25L150 26L149 25z"/>
<path style="fill:#ddf1f8; stroke:none;" d="M96 26L97 27L96 26z"/>
<path style="fill:#66c2e0; stroke:none;" d="M97 26L98 27L97 26z"/>
<path style="fill:#22a7d3; stroke:none;" d="M109 26L110 27L109 26z"/>
<path style="fill:#bbe4f1; stroke:none;" d="M110 26L111 27L110 26M131 26L132 27L131 26z"/>
<path style="fill:#ddf1f8; stroke:none;" d="M98 27L99 28L98 27z"/>
<path style="fill:#66c2e0; stroke:none;" d="M99 27L100 28L99 27z"/>
<path style="fill:#88cfe7; stroke:none;" d="M111 27L112 28L111 27z"/>
<path style="fill:#33add6; stroke:none;" d="M130 27L131 28L130 27z"/>
<path style="fill:#ccebf5; stroke:none;" d="M100 28L101 29L100 28z"/>
<path style="fill:#44b4da; stroke:none;" d="M101 28L102 29L101 28z"/>
<path style="fill:#66c2e0; stroke:none;" d="M112 28L113 29L112 28z"/>
<path style="fill:#99d6eb; stroke:none;" d="M130 28L131 29L130 28z"/>
<path style="fill:#bbe4f1; stroke:none;" d="M102 29L103 30L102 29z"/>
<path style="fill:#33add6; stroke:none;" d="M103 29L104 30L103 29z"/>
<path style="fill:#66c2e0; stroke:none;" d="M113 29L114 30L113 29z"/>
<path style="fill:#eef8fc; stroke:none;" d="M130 29L131 30L130 29z"/>
<path style="fill:#88cfe7; stroke:none;" d="M104 30L105 31L104 30z"/>
<path style="fill:#11a0cf; stroke:none;" d="M105 30L106 31L105 30z"/>
<path style="fill:#88cfe7; stroke:none;" d="M114 30L115 31L114 30z"/>
<path style="fill:#44b4da; stroke:none;" d="M129 30L130 31L129 30z"/>
<path style="fill:#ccebf5; stroke:none;" d="M105 31L106 32L105 31z"/>
<path style="fill:#33add6; stroke:none;" d="M106.667 31.6667L108.333 33.3333L106.667 31.6667z"/>
<path style="fill:#ddf1f8; stroke:none;" d="M115 31L116 32L115 31z"/>
<path style="fill:#88cfe7; stroke:none;" d="M129 31L130 32L129 31z"/>
<path style="fill:#eef8fc; stroke:none;" d="M106 32L107 33L106 32z"/>
<path style="fill:#66c2e0; stroke:none;" d="M115 32L116 33L115 32z"/>
<path style="fill:#bbe4f1; stroke:none;" d="M129 32L130 33L129 32z"/>
<path style="fill:#eef8fc; stroke:none;" d="M107 33L108 34L107 33z"/>
<path style="fill:#11a0cf; stroke:none;" d="M115 33L116 34L115 33z"/>
<path style="fill:#ccebf5; stroke:none;" d="M129 33L130 34L129 33M108 34L109 35L108 34M116 34L117 35L116 34z"/>
<path style="fill:#66c2e0; stroke:none;" d="M109 35L110 36L109 35z"/>
<path style="fill:#bbe4f1; stroke:none;" d="M116 35L117 36L116 35z"/>
<path style="fill:#aaddee; stroke:none;" d="M109 36L110 37L109 36z"/>
<path style="fill:#88cfe7; stroke:none;" d="M116.333 36.6667L116.667 38.3333L116.333 36.6667z"/>
<path style="fill:#eef8fc; stroke:none;" d="M109 37L110 38L109 37z"/>
<path style="fill:#aaddee; stroke:none;" d="M116 39L117 40L116 39z"/>
<path style="fill:#eef8fc; stroke:none;" d="M109 40L110 41L109 40z"/>
<path style="fill:#bbe4f1; stroke:none;" d="M116 40L117 41L116 40z"/>
<path style="fill:#aaddee; stroke:none;" d="M109 41L110 42L109 41z"/>
<path style="fill:#66c2e0; stroke:none;" d="M109 42L110 43L109 42z"/>
<path style="fill:#55bbdd; stroke:none;" d="M115 42L116 43L115 42z"/>
<path style="fill:#089cce; stroke:none;" d="M206 42L207 43L206 42z"/>
<path style="fill:#ccebf5; stroke:none;" d="M108 43L109 44L108 43z"/>
<path style="fill:#aaddee; stroke:none;" d="M115 43L116 44L115 43z"/>
<path style="fill:#44b4da; stroke:none;" d="M206 43L207 44L206 43z"/>
<path style="fill:#66c2e0; stroke:none;" d="M87 44L88 45L87 44z"/>
<path style="fill:#99d6eb; stroke:none;" d="M88 44L89 45L88 44z"/>
<path style="fill:#eef8fc; stroke:none;" d="M107 44L108 45L107 44z"/>
<path style="fill:#33add6; stroke:none;" d="M108 44L109 45L108 44z"/>
<path style="fill:#44b4da; stroke:none;" d="M114 44L115 45L114 44z"/>
<path style="fill:#88cfe7; stroke:none;" d="M206 44L207 45L206 44z"/>
<path style="fill:#44b4da; stroke:none;" d="M87.3333 45.6667L87.6667 49.3333L87.3333 45.6667z"/>
<path style="fill:#11a0cf; stroke:none;" d="M89 45L90 46L89 45z"/>
<path style="fill:#77c9e4; stroke:none;" d="M90 45L91 46L90 45z"/>
<path style="fill:#ddf1f8; stroke:none;" d="M91 45L92 46L91 45z"/>
<path style="fill:#bbe4f1; stroke:none;" d="M106 45L107 46L106 45z"/>
<path style="fill:#33add6; stroke:none;" d="M107 45L108 46L107 45z"/>
<path style="fill:#ccebf5; stroke:none;" d="M114 45L115 46L114 45z"/>
<path style="fill:#bbe4f1; stroke:none;" d="M206 45L207 46L206 45z"/>
<path style="fill:#99d6eb; stroke:none;" d="M212 45L213 46L212 45z"/>
<path style="fill:#33add6; stroke:none;" d="M92 46L93 47L92 46z"/>
<path style="fill:#88cfe7; stroke:none;" d="M93 46L94 47L93 46z"/>
<path style="fill:#bbe4f1; stroke:none;" d="M94 46L95 47L94 46M104 46L105 47L104 46z"/>
<path style="fill:#66c2e0; stroke:none;" d="M105 46L106 47L105 46z"/>
<path style="fill:#99d6eb; stroke:none;" d="M113 46L114 47L113 46z"/>
<path style="fill:#ddf1f8; stroke:none;" d="M206 46L207 47L206 46z"/>
<path style="fill:#22a7d3; stroke:none;" d="M212 46L213 47L212 46z"/>
<path style="fill:#eef8fc; stroke:none;" d="M213 46L214 47L213 46z"/>
<path style="fill:#44b4da; stroke:none;" d="M96 47L97 48L96 47z"/>
<path style="fill:#66c2e0; stroke:none;" d="M97 47L98 48L97 47z"/>
<path style="fill:#88cfe7; stroke:none;" d="M98.6667 47.3333L101.333 47.6667L98.6667 47.3333z"/>
<path style="fill:#44b4da; stroke:none;" d="M102 47L103 48L102 47z"/>
<path style="fill:#11a0cf; stroke:none;" d="M103 47L104 48L103 47z"/>
<path style="fill:#99d6eb; stroke:none;" d="M112 47L113 48L112 47z"/>
<path style="fill:#44b4da; stroke:none;" d="M207 47L208 48L207 47z"/>
<path style="fill:#33add6; stroke:none;" d="M213 47L214 48L213 47z"/>
<path style="fill:#aaddee; stroke:none;" d="M214 47L215 48L214 47z"/>
<path style="fill:#eef8fc; stroke:none;" d="M220 47L221 48L220 47z"/>
<path style="fill:#22a7d3; stroke:none;" d="M110 48L111 49L110 48z"/>
<path style="fill:#ccebf5; stroke:none;" d="M111 48L112 49L111 48M207 48L208 49L207 48z"/>
<path style="fill:#44b4da; stroke:none;" d="M216.667 48.3333L218.333 48.6667L216.667 48.3333z"/>
<path style="fill:#33add6; stroke:none;" d="M219 48L220 49L219 48z"/>
<path style="fill:#11a0cf; stroke:none;" d="M108 49L109 50L108 49z"/>
<path style="fill:#88cfe7; stroke:none;" d="M109 49L110 50L109 49z"/>
<path style="fill:#eef8fc; stroke:none;" d="M110 49L111 50L110 49z"/>
<path style="fill:#99d6eb; stroke:none;" d="M208 49L209 50L208 49z"/>
<path style="fill:#bbe4f1; stroke:none;" d="M87 50L88 51L87 50z"/>
<path style="fill:#77c9e4; stroke:none;" d="M88 50L89 51L88 50z"/>
<path style="fill:#44b4da; stroke:none;" d="M89 50L90 51L89 50z"/>
<path style="fill:#11a0cf; stroke:none;" d="M105 50L106 51L105 50z"/>
<path style="fill:#55bbdd; stroke:none;" d="M106 50L107 51L106 50z"/>
<path style="fill:#99d6eb; stroke:none;" d="M107 50L108 51L107 50z"/>
<path style="fill:#ccebf5; stroke:none;" d="M209 50L210 51L209 50z"/>
<path style="fill:#55bbdd; stroke:none;" d="M210 50L211 51L210 50z"/>
<path style="fill:#ccebf5; stroke:none;" d="M91 51L92 52L91 51z"/>
<path style="fill:#bbe4f1; stroke:none;" d="M92 51L93 52L92 51z"/>
<path style="fill:#88cfe7; stroke:none;" d="M93.6667 51.3333L94.3333 51.6667L93.6667 51.3333z"/>
<path style="fill:#77c9e4; stroke:none;" d="M95 51L96 52L95 51z"/>
<path style="fill:#44b4da; stroke:none;" d="M96.6667 51.3333L100.333 51.6667L96.6667 51.3333z"/>
<path style="fill:#77c9e4; stroke:none;" d="M101 51L102 52L101 51z"/>
<path style="fill:#88cfe7; stroke:none;" d="M102 51L103 52L102 51z"/>
<path style="fill:#99d6eb; stroke:none;" d="M103 51L104 52L103 51z"/>
<path style="fill:#ccebf5; stroke:none;" d="M104 51L105 52L104 51z"/>
<path style="fill:#eef8fc; stroke:none;" d="M211 51L212 52L211 51z"/>
<path style="fill:#aaddee; stroke:none;" d="M212 51L213 52L212 51z"/>
<path style="fill:#88cfe7; stroke:none;" d="M213 51L214 52L213 51z"/>
<path style="fill:#55bbdd; stroke:none;" d="M214 51L215 52L214 51z"/>
<path style="fill:#44b4da; stroke:none;" d="M215.667 51.3333L218.333 51.6667L215.667 51.3333z"/>
<path style="fill:#66c2e0; stroke:none;" d="M219 51L220 52L219 51z"/>
<path style="fill:#88cfe7; stroke:none;" d="M220 51L221 52L220 51z"/>
</svg>
