<?xml version="1.0" standalone="yes"?>
<svg xmlns="http://www.w3.org/2000/svg" width="221" height="52">
<path style="fill:#ffffff; stroke:none;" d="M0 2L3 1L9 1L10 2L10 4L10 8L10 9L10 10L10 11L10 12L10 13L10 14L10 15L10 16L10 17L10 18L10 19L10 20L10 21L10 22L10 23L10 24L10 25L10 26L10 27L10 28L10 29L10 30L10 31L10 32L10 33L10 34L10 35L10 40L11 41L13 41L17 41L18 41L19 41L20 41L21 41L22 41L23 41L24 41L25 41L26 41L27 41L28 41L29 41L30 41L31 41L32 41L33 41L34 41L35 41L36 41L37 41L38 41L39 41L40 41L41 41L42 41L43 41L44 41L49 41L50 42L50 44L50 50L49 51L47 51L43 51L42 51L41 51L40 51L39 51L38 51L37 51L36 51L35 51L34 51L33 51L32 51L31 51L30 51L29 51L28 51L27 51L26 51L25 51L24 51L23 51L22 51L21 51L20 51L19 51L18 51L17 51L16 51L15 51L14 51L13 51L12 51L11 51L10 51L9 51L8 51L0 50L2 52L6 52L7 52L8 52L9 52L10 52L11 52L12 52L13 52L14 52L15 52L16 52L17 52L18 52L19 52L20 52L21 52L22 52L23 52L24 52L25 52L26 52L27 52L28 52L29 52L30 52L31 52L32 52L33 52L34 52L35 52L36 52L37 52L38 52L39 52L40 52L41 52L42 52L43 52L44 52L45 52L46 52L47 52L48 52L49 52L50 52L51 52L52 52L53 52L54 52L55 52L56 52L57 52L58 52L59 52L60 52L61 52L62 52L63 52L64 52L65 52L66 52L67 52L68 52L69 52L70 52L71 52L72 52L73 52L74 52L75 52L76 52L77 52L78 52L79 52L80 52L81 52L82 52L83 52L84 52L85 52L91 52L91 51L87 51L87 44L92 45L92 46L95 47L104 47L107 45L108 44L109 43L110 40L110 38L109 35L107 33L106 33L106 32L105 32L104 30L100 29L100 28L98 28L98 27L96 27L96 26L94 26L93 24L91 24L87 19L87 15L86 15L86 11L87 11L87 7L89 4L98 1L98 0L95 0L91 0L90 0L89 0L88 0L87 0L86 0L85 0L84 0L83 0L82 0L81 0L80 0L79 0L78 0L77 0L76 0L75 0L74 0L73 0L72 0L71 0L70 0L69 0L68 0L67 0L66 0L65 0L64 0L63 0L62 0L61 0L60 0L59 0L58 0L57 0L56 0L55 0L54 0L53 0L52 0L51 0L50 0L49 0L48 0L47 0L46 0L45 0L44 0L43 0L42 0L41 0L40 0L39 0L38 0L37 0L36 0L35 0L34 0L33 0L32 0L31 0L30 0L29 0L28 0L27 0L26 0L25 0L24 0L23 0L22 0L21 0L20 0L19 0L18 0L17 0L16 0L15 0L14 0L13 0L12 0L11 0L10 0L9 0L8 0L7 0L6 0L5 0L4 0L1 0L0 2z"/>
<path style="fill:#ccebf5; stroke:none;" d="M98 0L99 1L98 0z"/>
<path style="fill:#bbe4f1; stroke:none;" d="M99 0L100 1L99 0z"/>
<path style="fill:#88cfe7; stroke:none;" d="M100 0L100 1L105 1L105 0L100 0z"/>
<path style="fill:#bbe4f1; stroke:none;" d="M105.667 0.333332L106.333 0.666668L105.667 0.333332z"/>
<path style="fill:#ddf1f8; stroke:none;" d="M107 0L108 1L107 0z"/>
<path style="fill:#ffffff; stroke:none;" d="M108 0L108 1L114 1L114 8L109 7L109 6L106 5L98 5L95 7L94 8L93 9L93 14L95 17L96 18L97 19L103 21L104 23L106 23L106 24L108 24L110 25L112 27L112 28L113 28L113 29L116 31L117 34L117 41L115 46L111 50L105 51L105 52L109 52L110 52L111 52L112 52L113 52L114 52L115 52L116 52L117 52L118 52L119 52L120 52L121 52L122 52L123 52L124 52L125 52L126 52L127 52L128 52L129 52L130 52L131 52L132 52L133 52L134 52L135 52L136 52L137 52L138 52L139 52L140 52L141 52L142 52L143 52L144 52L145 52L146 52L147 52L148 52L149 52L150 52L151 52L152 52L153 52L154 52L155 52L156 52L157 52L158 52L159 52L160 52L161 52L162 52L163 52L164 52L165 52L166 52L167 52L168 52L169 52L170 52L171 52L172 52L173 52L174 52L175 52L176 52L177 52L178 52L179 52L180 52L181 52L182 52L183 52L184 52L185 52L186 52L187 52L188 52L189 52L190 52L191 52L192 52L193 52L194 52L195 52L196 52L197 52L198 52L199 52L200 52L201 52L202 52L203 52L204 52L211 52L211 51L208 50L206 47L206 43L206 42L206 41L206 40L206 39L206 38L206 37L206 36L206 35L206 34L206 33L206 32L206 31L206 30L206 29L206 28L206 27L206 26L206 25L206 24L206 20L200 20L200 16L206 16L206 8L212 5L212 9L212 10L212 11L212 12L212 16L221 16L221 12L221 11L221 10L221 9L221 8L221 7L221 6L221 5L221 0L217 0L216 0L215 0L214 0L213 0L212 0L211 0L210 0L209 0L208 0L207 0L206 0L205 0L204 0L203 0L202 0L201 0L200 0L199 0L198 0L197 0L196 0L195 0L194 0L193 0L192 0L191 0L190 0L189 0L188 0L187 0L186 0L185 0L184 0L183 0L182 0L181 0L180 0L179 0L178 0L177 0L176 0L175 0L174 0L173 0L172 0L171 0L170 0L169 0L168 0L167 0L166 0L165 0L164 0L163 0L162 0L161 0L160 0L159 0L158 0L157 0L156 0L155 0L154 0L153 0L152 0L151 0L150 0L149 0L148 0L147 0L146 0L145 0L144 0L143 0L142 0L141 0L140 0L139 0L138 0L137 0L136 0L135 0L134 0L133 0L132 0L131 0L130 0L129 0L128 0L127 0L126 0L125 0L124 0L123 0L122 0L121 0L120 0L119 0L118 0L117 0L116 0L115 0L114 0L108 0z"/>
<path style="fill:#0099cc; stroke:none;" d="M1 1L0 2L0 4L0 8L0 9L0 10L0 11L0 12L0 13L0 14L0 15L0 16L0 17L0 18L0 19L0 20L0 21L0 22L0 23L0 24L0 25L0 26L0 27L0 28L0 29L0 30L0 31L0 32L0 33L0 34L0 35L0 36L0 37L0 38L0 39L0 40L0 41L0 42L0 43L0 50L1 51L3 51L7 51L8 51L9 51L10 51L11 51L12 51L13 51L14 51L15 51L16 51L17 51L18 51L19 51L20 51L21 51L22 51L23 51L24 51L25 51L26 51L27 51L28 51L29 51L30 51L31 51L32 51L33 51L34 51L35 51L36 51L37 51L38 51L39 51L40 51L41 51L42 51L49 51L50 50L50 48L50 42L49 41L47 41L43 41L42 41L41 41L40 41L39 41L38 41L37 41L36 41L35 41L34 41L33 41L32 41L31 41L30 41L29 41L28 41L27 41L26 41L25 41L24 41L23 41L22 41L21 41L20 41L19 41L18 41L17 41L16 41L11 41L10 40L10 38L10 34L10 33L10 32L10 31L10 30L10 29L10 28L10 27L10 26L10 25L10 24L10 23L10 22L10 21L10 20L10 19L10 18L10 17L10 16L10 15L10 14L10 13L10 12L10 11L10 10L10 9L10 8L10 7L10 2L9 1L7 1L1 1M21 1L20 2L20 4L20 10L21 11L23 11L29 11L30 12L30 14L30 20L29 21L27 21L21 21L20 22L20 24L20 30L21 31L23 31L29 31L30 30L30 28L30 22L31 21L33 21L39 21L40 22L40 24L40 30L41 31L43 31L49 31L50 30L50 28L50 24L50 23L50 22L50 21L50 20L50 19L50 18L50 17L50 16L50 15L50 14L50 13L50 12L50 11L50 10L50 9L50 2L49 1L47 1L43 1L42 1L41 1L40 1L39 1L38 1L37 1L36 1L35 1L34 1L33 1L32 1L31 1L30 1L29 1L28 1L21 1M60 1L60 5L60 6L60 7L60 8L60 9L60 10L60 11L60 12L60 13L60 14L60 15L60 16L60 17L60 18L60 19L60 20L60 21L60 22L60 23L60 24L60 25L60 26L60 27L60 28L60 29L60 30L60 31L60 32L60 33L60 34L60 35L60 36L60 37L60 38L60 39L60 40L60 41L60 42L60 43L60 44L60 51L64 51L65 51L66 51L67 51L68 51L69 51L70 51L71 51L72 51L73 51L74 51L75 51L76 51L77 51L78 51L79 51L83 51L83 47L79 47L78 47L77 47L76 47L75 47L74 47L73 47L72 47L66 47L66 43L66 42L66 41L66 40L66 39L66 38L66 37L66 36L66 35L66 34L66 33L66 32L66 31L66 30L66 29L66 28L66 27L66 26L66 25L66 24L66 23L66 22L66 21L66 20L66 19L66 18L66 17L66 16L66 15L66 14L66 13L66 12L66 11L66 10L66 9L66 8L66 1L60 1z"/>
<path style="fill:#ddf1f8; stroke:none;" d="M94 1L95 2L94 1z"/>
<path style="fill:#88cfe7; stroke:none;" d="M95 1L96 2L95 1z"/>
<path style="fill:#44b4da; stroke:none;" d="M96 1L97 2L96 1z"/>
<path style="fill:#0099cc; stroke:none;" d="M97 1L92 3L89 6L87 10L87 16L88 19L90 21L91 21L91 22L92 22L93 24L95 24L96 26L100 27L100 28L102 28L102 29L104 29L104 30L106 30L110 35L109 45L108 46L106 46L106 47L104 48L96 48L96 47L92 47L88 45L88 50L91 51L95 51L96 51L97 51L98 51L105 51L108 50L113 47L114 44L115 44L116 42L116 34L115 31L111 27L109 27L108 25L104 24L104 23L102 23L100 22L99 20L95 19L94 18L92 15L92 9L95 5L98 4L106 4L109 5L109 6L113 7L113 2L109 2L109 1L106 1L97 1z"/>
<path style="fill:#11a0cf; stroke:none;" d="M109 1L110 2L109 1z"/>
<path style="fill:#44b4da; stroke:none;" d="M110 1L111 2L110 1z"/>
<path style="fill:#77c9e4; stroke:none;" d="M111 1L112 2L111 1z"/>
<path style="fill:#99d6eb; stroke:none;" d="M112 1L113 2L112 1z"/>
<path style="fill:#eef8fc; stroke:none;" d="M113 1L114 2L113 1z"/>
<path style="fill:#0099cc; stroke:none;" d="M123 1L123 5L123 6L123 7L123 8L123 9L123 10L123 11L123 12L123 13L123 14L123 15L123 16L123 17L123 18L123 19L123 20L123 21L123 22L123 23L123 24L123 25L123 26L123 27L123 28L123 29L123 30L123 31L123 32L123 33L123 34L123 35L123 36L123 37L123 38L123 39L123 40L123 41L123 42L123 43L123 44L123 51L129 51L129 47L129 46L129 45L129 44L129 43L129 42L129 41L129 40L129 39L129 38L129 37L129 36L129 30L131 25L133 22L136 20L142 20L144 22L144 26L144 27L144 28L144 29L144 30L144 31L144 32L144 33L144 34L144 35L144 36L144 37L144 38L144 39L144 40L144 41L144 42L144 43L144 44L144 45L144 51L150 51L150 47L150 46L150 45L150 44L150 43L150 42L150 41L150 40L150 39L150 38L150 37L150 36L150 35L150 34L150 33L150 32L150 26L149 26L149 22L147 19L146 18L145 17L141 16L140 16L135 18L131 22L130 26L129 26L129 22L129 21L129 20L129 19L129 18L129 17L129 16L129 15L129 14L129 13L129 12L129 11L129 10L129 9L129 8L129 7L129 1L123 1M162 1L162 8L168 8L168 1L162 1z"/>
<path style="fill:#aaddee; stroke:none;" d="M188 1L189 2L188 1z"/>
<path style="fill:#77c9e4; stroke:none;" d="M189 1L190 2L189 1z"/>
<path style="fill:#44b4da; stroke:none;" d="M190 1L191 2L190 1z"/>
<path style="fill:#22a7d3; stroke:none;" d="M191 1L192 2L191 1z"/>
<path style="fill:#0099cc; stroke:none;" d="M192 1L192 2L188 2L185 4L184 5L183 6L183 10L182 10L181 16L175 16L175 20L181 20L181 24L181 25L181 26L181 27L181 28L181 29L181 30L181 31L181 32L181 33L181 34L181 35L181 36L181 37L181 38L181 39L181 40L181 41L181 42L181 43L181 44L181 45L181 46L181 47L181 51L187 51L187 47L187 46L187 45L187 44L187 43L187 42L187 41L187 40L187 39L187 38L187 37L187 36L187 35L187 34L187 33L187 32L187 31L187 30L187 29L187 28L187 27L187 26L187 25L187 24L187 20L197 20L197 16L187 16L187 7L191 4L200 6L199 2L196 1L192 1z"/>
<path style="fill:#44b4da; stroke:none;" d="M196 1L197 2L196 1z"/>
<path style="fill:#55bbdd; stroke:none;" d="M197 1L198 2L197 1z"/>
<path style="fill:#88cfe7; stroke:none;" d="M198 1L200 3L198 1z"/>
<path style="fill:#ccebf5; stroke:none;" d="M199 1L200 2L199 1z"/>
<path style="fill:#bbe4f1; stroke:none;" d="M92 2L93 3L92 2z"/>
<path style="fill:#44b4da; stroke:none;" d="M93 2L94 3L93 2z"/>
<path style="fill:#bbe4f1; stroke:none;" d="M113 2L113 7L114 7L113 2z"/>
<path style="fill:#88cfe7; stroke:none;" d="M186 2L187 3L186 2z"/>
<path style="fill:#11a0cf; stroke:none;" d="M187 2L188 3L187 2z"/>
<path style="fill:#77c9e4; stroke:none;" d="M91 3L92 4L91 3z"/>
<path style="fill:#eef8fc; stroke:none;" d="M184 3L183 5L184 3z"/>
<path style="fill:#33add6; stroke:none;" d="M185 3L186 4L185 3z"/>
<path style="fill:#eef8fc; stroke:none;" d="M89 4L90 5L89 4z"/>
<path style="fill:#33add6; stroke:none;" d="M90 4L91 5L90 4M98 4L99 5L98 4z"/>
<path style="fill:#77c9e4; stroke:none;" d="M99 4L100 5L99 4z"/>
<path style="fill:#88cfe7; stroke:none;" d="M100 4L100 5L101 5L102 5L103 5L103 4L102 4L100 4z"/>
<path style="fill:#66c2e0; stroke:none;" d="M103 4L104 5L103 4z"/>
<path style="fill:#44b4da; stroke:none;" d="M104 4L105 5L104 4z"/>
<path style="fill:#11a0cf; stroke:none;" d="M105 4L106 5L105 4z"/>
<path style="fill:#33add6; stroke:none;" d="M184 4L185 5L184 4z"/>
<path style="fill:#44b4da; stroke:none;" d="M191 4L192 5L191 4z"/>
<path style="fill:#77c9e4; stroke:none;" d="M192 4L193 5L192 4z"/>
<path style="fill:#88cfe7; stroke:none;" d="M193.667 4.33333L194.333 4.66667L193.667 4.33333z"/>
<path style="fill:#77c9e4; stroke:none;" d="M195 4L196 5L195 4z"/>
<path style="fill:#33add6; stroke:none;" d="M196 4L197 5L196 4z"/>
<path style="fill:#44b4da; stroke:none;" d="M89 5L90 6L89 5z"/>
<path style="fill:#11a0cf; stroke:none;" d="M95 5L96 6L95 5z"/>
<path style="fill:#88cfe7; stroke:none;" d="M96 5L97 6L96 5z"/>
<path style="fill:#ddf1f8; stroke:none;" d="M97 5L98 6L97 5z"/>
<path style="fill:#ccebf5; stroke:none;" d="M106 5L107 6L106 5z"/>
<path style="fill:#88cfe7; stroke:none;" d="M107 5L108 6L107 5z"/>
<path style="fill:#55bbdd; stroke:none;" d="M108 5L109 6L108 5z"/>
<path style="fill:#77c9e4; stroke:none;" d="M183 5L184 6L183 5z"/>
<path style="fill:#55bbdd; stroke:none;" d="M189 5L190 6L189 5z"/>
<path style="fill:#ddf1f8; stroke:none;" d="M190 5L191 6L190 5M197 5L198 6L197 5z"/>
<path style="fill:#eef8fc; stroke:none;" d="M210 5L211 6L210 5z"/>
<path style="fill:#99d6eb; stroke:none;" d="M211 5L212 6L211 5z"/>
<path style="fill:#88cfe7; stroke:none;" d="M88 6L89 7L88 6z"/>
<path style="fill:#33add6; stroke:none;" d="M94 6L95 7L94 6z"/>
<path style="fill:#ccebf5; stroke:none;" d="M95 6L96 7L95 6z"/>
<path style="fill:#eef8fc; stroke:none;" d="M109 6L110 7L109 6z"/>
<path style="fill:#99d6eb; stroke:none;" d="M110 6L111 7L110 6z"/>
<path style="fill:#44b4da; stroke:none;" d="M111 6L112 7L111 6z"/>
<path style="fill:#ddf1f8; stroke:none;" d="M182 6L183 7L182 6z"/>
<path style="fill:#66c2e0; stroke:none;" d="M188 6L189 7L188 6z"/>
<path style="fill:#aaddee; stroke:none;" d="M209 6L210 7L209 6z"/>
<path style="fill:#11a0cf; stroke:none;" d="M210 6L211 7L210 6z"/>
<path style="fill:#0099cc; stroke:none;" d="M211 6L208 8L207 9L206 10L206 16L200 16L200 20L206 20L206 24L206 25L206 26L206 27L206 28L206 29L206 30L206 31L206 32L206 33L206 34L206 35L206 42L207 42L208 49L209 50L211 51C214.768 51 220.054 52.4128 221 48L216 49L212 47L212 43L212 42L212 41L212 40L212 39L212 38L212 37L212 36L212 35L212 34L212 33L212 32L212 31L212 30L212 29L212 28L212 27L212 26L212 25L212 24L212 20L221 20L221 16L212 16L211 6z"/>
<path style="fill:#eef8fc; stroke:none;" d="M87 7L88 8L87 7z"/>
<path style="fill:#11a0cf; stroke:none;" d="M88 7L89 8L88 7z"/>
<path style="fill:#22a7d3; stroke:none;" d="M93 7L94 8L93 7z"/>
<path style="fill:#eef8fc; stroke:none;" d="M94 7L95 8L94 7z"/>
<path style="fill:#ccebf5; stroke:none;" d="M112 7L113 8L112 7z"/>
<path style="fill:#ddf1f8; stroke:none;" d="M113 7L114 8L113 7z"/>
<path style="fill:#88cfe7; stroke:none;" d="M182 7L183 8L182 7z"/>
<path style="fill:#22a7d3; stroke:none;" d="M187 7L188 8L187 7z"/>
<path style="fill:#ddf1f8; stroke:none;" d="M207 7L208 8L207 7z"/>
<path style="fill:#55bbdd; stroke:none;" d="M208 7L209 8L208 7z"/>
<path style="fill:#88cfe7; stroke:none;" d="M87 8L88 9L87 8z"/>
<path style="fill:#aaddee; stroke:none;" d="M93 8L94 9L93 8z"/>
<path style="fill:#44b4da; stroke:none;" d="M182 8L183 9L182 8z"/>
<path style="fill:#77c9e4; stroke:none;" d="M187 8L188 9L187 8z"/>
<path style="fill:#aaddee; stroke:none;" d="M206 8L207 9L206 8z"/>
<path style="fill:#11a0cf; stroke:none;" d="M207 8L208 9L207 8z"/>
<path style="fill:#44b4da; stroke:none;" d="M87 9L88 10L87 9z"/>
<path style="fill:#22a7d3; stroke:none;" d="M92 9L93 10L92 9z"/>
<path style="fill:#11a0cf; stroke:none;" d="M182 9L183 10L182 9z"/>
<path style="fill:#bbe4f1; stroke:none;" d="M187 9L188 10L187 9z"/>
<path style="fill:#88cfe7; stroke:none;" d="M206 9L207 10L206 9z"/>
<path style="fill:#77c9e4; stroke:none;" d="M92 10L93 11L92 10z"/>
<path style="fill:#eef8fc; stroke:none;" d="M187 10L188 11L187 10z"/>
<path style="fill:#ccebf5; stroke:none;" d="M86 11L87 12L86 11z"/>
<path style="fill:#88cfe7; stroke:none;" d="M92.3333 11.6667L92.6667 12.3333L92.3333 11.6667z"/>
<path style="fill:#ddf1f8; stroke:none;" d="M181 11L182 12L181 11z"/>
<path style="fill:#bbe4f1; stroke:none;" d="M86.3333 12.6667L86.6667 13.3333L86.3333 12.6667M181 12L182 13L181 12z"/>
<path style="fill:#55bbdd; stroke:none;" d="M92 13L93 14L92 13z"/>
<path style="fill:#5bbdde; stroke:none;" d="M181 13L182 14L181 13z"/>
<path style="fill:#ccebf5; stroke:none;" d="M86 14L87 15L86 14z"/>
<path style="fill:#11a0cf; stroke:none;" d="M92 14L93 15L92 14z"/>
<path style="fill:#eef8fc; stroke:none;" d="M93 14L94 15L93 14z"/>
<path style="fill:#88cfe7; stroke:none;" d="M93 15L94 16L93 15z"/>
<path style="fill:#33add6; stroke:none;" d="M87 16L88 17L87 16z"/>
<path style="fill:#ccebf5; stroke:none;" d="M94 16L96 18L94 16z"/>
<path style="fill:#eef8fc; stroke:none;" d="M136 16L137 17L136 16z"/>
<path style="fill:#99d6eb; stroke:none;" d="M137 16L138 17L137 16z"/>
<path style="fill:#55bbdd; stroke:none;" d="M138 16L139 17L138 16z"/>
<path style="fill:#22a7d3; stroke:none;" d="M139 16L140 17L139 16z"/>
<path style="fill:#11a0cf; stroke:none;" d="M141 16L142 17L141 16z"/>
<path style="fill:#44b4da; stroke:none;" d="M142 16L143 17L142 16z"/>
<path style="fill:#77c9e4; stroke:none;" d="M143 16L144 17L143 16z"/>
<path style="fill:#ccebf5; stroke:none;" d="M144 16L145 17L144 16z"/>
<path style="fill:#0099cc; stroke:none;" d="M162 16L162 20L162 21L162 22L162 23L162 24L162 25L162 26L162 27L162 28L162 29L162 30L162 31L162 32L162 33L162 34L162 35L162 36L162 37L162 38L162 39L162 40L162 41L162 42L162 43L162 44L162 45L162 46L162 47L162 51L168 51L168 47L168 46L168 45L168 44L168 43L168 42L168 41L168 40L168 39L168 38L168 37L168 36L168 35L168 34L168 33L168 32L168 31L168 30L168 29L168 28L168 27L168 26L168 25L168 24L168 23L168 22L168 21L168 20L168 16L162 16z"/>
<path style="fill:#88cfe7; stroke:none;" d="M87 17L88 18L87 17z"/>
<path style="fill:#11a0cf; stroke:none;" d="M94 17L95 18L94 17z"/>
<path style="fill:#88cfe7; stroke:none;" d="M135 17L136 18L135 17z"/>
<path style="fill:#11a0cf; stroke:none;" d="M136 17L137 18L136 17z"/>
<path style="fill:#55bbdd; stroke:none;" d="M145 17L146 18L145 17z"/>
<path style="fill:#eef8fc; stroke:none;" d="M146 17L148 19L146 17z"/>
<path style="fill:#ddf1f8; stroke:none;" d="M87 18L88 19L87 18z"/>
<path style="fill:#11a0cf; stroke:none;" d="M95 18L96 19L95 18z"/>
<path style="fill:#99d6eb; stroke:none;" d="M96 18L97 19L96 18z"/>
<path style="fill:#eef8fc; stroke:none;" d="M133 18L132 20L133 18z"/>
<path style="fill:#44b4da; stroke:none;" d="M134 18L135 19L134 18z"/>
<path style="fill:#33add6; stroke:none;" d="M146 18L147 19L146 18z"/>
<path style="fill:#77c9e4; stroke:none;" d="M88 19L89 20L88 19z"/>
<path style="fill:#55bbdd; stroke:none;" d="M97 19L98 20L97 19z"/>
<path style="fill:#ddf1f8; stroke:none;" d="M98 19L99 20L98 19z"/>
<path style="fill:#33add6; stroke:none;" d="M133 19L134 20L133 19M147 19L148 20L147 19z"/>
<path style="fill:#eef8fc; stroke:none;" d="M88 20L89 21L88 20z"/>
<path style="fill:#22a7d3; stroke:none;" d="M89 20L90 21L89 20z"/>
<path style="fill:#88cfe7; stroke:none;" d="M99 20L100 21L99 20z"/>
<path style="fill:#eef8fc; stroke:none;" d="M100 20L101 21L100 20z"/>
<path style="fill:#55bbdd; stroke:none;" d="M132 20L133 21L132 20z"/>
<path style="fill:#11a0cf; stroke:none;" d="M136 20L137 21L136 20z"/>
<path style="fill:#55bbdd; stroke:none;" d="M137 20L138 21L137 20z"/>
<path style="fill:#88cfe7; stroke:none;" d="M138.667 20.3333L139.333 20.6667L138.667 20.3333z"/>
<path style="fill:#66c2e0; stroke:none;" d="M140 20L141 21L140 20z"/>
<path style="fill:#11a0cf; stroke:none;" d="M141 20L142 21L141 20z"/>
<path style="fill:#99d6eb; stroke:none;" d="M148 20L149 21L148 20z"/>
<path style="fill:#ffffff; stroke:none;" d="M212 20L212 24L212 25L212 26L212 27L212 28L212 29L212 30L212 31L212 32L212 33L212 34L212 35L212 36L212 37L212 38L212 39L212 45L215 48L220 48L221 47L221 45L221 41L221 40L221 39L221 38L221 37L221 36L221 35L221 34L221 33L221 32L221 31L221 30L221 29L221 28L221 27L221 26L221 20L212 20z"/>
<path style="fill:#ccebf5; stroke:none;" d="M89 21L91 23L89 21z"/>
<path style="fill:#11a0cf; stroke:none;" d="M90 21L91 22L90 21M100 21L101 22L100 21z"/>
<path style="fill:#88cfe7; stroke:none;" d="M101 21L102 22L101 21z"/>
<path style="fill:#eef8fc; stroke:none;" d="M102 21L103 22L102 21z"/>
<path style="fill:#88cfe7; stroke:none;" d="M131 21L132 22L131 21z"/>
<path style="fill:#77c9e4; stroke:none;" d="M135 21L136 22L135 21z"/>
<path style="fill:#eef8fc; stroke:none;" d="M136 21L137 22L136 21M141 21L142 22L141 21z"/>
<path style="fill:#55bbdd; stroke:none;" d="M142 21L143 22L142 21z"/>
<path style="fill:#33add6; stroke:none;" d="M148 21L149 22L148 21z"/>
<path style="fill:#11a0cf; stroke:none;" d="M91 22L92 23L91 22M102 22L103 23L102 22z"/>
<path style="fill:#88cfe7; stroke:none;" d="M103 22L104 23L103 22z"/>
<path style="fill:#ddf1f8; stroke:none;" d="M130 22L131 23L130 22z"/>
<path style="fill:#11a0cf; stroke:none;" d="M133 22L134 23L133 22z"/>
<path style="fill:#aaddee; stroke:none;" d="M134 22L135 23L134 22z"/>
<path style="fill:#22a7d3; stroke:none;" d="M143 22L144 23L143 22z"/>
<path style="fill:#ddf1f8; stroke:none;" d="M149 22L150 23L149 22M91 23L92 24L91 23z"/>
<path style="fill:#44b4da; stroke:none;" d="M92 23L93 24L92 23z"/>
<path style="fill:#22a7d3; stroke:none;" d="M104 23L105 24L104 23z"/>
<path style="fill:#99d6eb; stroke:none;" d="M105 23L106 24L105 23z"/>
<path style="fill:#44b4da; stroke:none;" d="M130 23L131 24L130 23z"/>
<path style="fill:#bbe4f1; stroke:none;" d="M133 23L134 24L133 23z"/>
<path style="fill:#99d6eb; stroke:none;" d="M143 23L144 24L143 23z"/>
<path style="fill:#bbe4f1; stroke:none;" d="M149 23L150 24L149 23z"/>
<path style="fill:#88cfe7; stroke:none;" d="M93 24L94 25L93 24z"/>
<path style="fill:#11a0cf; stroke:none;" d="M94 24L95 25L94 24z"/>
<path style="fill:#33add6; stroke:none;" d="M106 24L107 25L106 24z"/>
<path style="fill:#bbe4f1; stroke:none;" d="M107 24L108 25L107 24M129 24L130 25L129 24z"/>
<path style="fill:#88cfe7; stroke:none;" d="M132 24L133 25L132 24z"/>
<path style="fill:#eef8fc; stroke:none;" d="M143 24L144 25L143 24z"/>
<path style="fill:#7fcce5; stroke:none;" d="M149 24L150 25L149 24z"/>
<path style="fill:#eef8fc; stroke:none;" d="M94 25L95 26L94 25z"/>
<path style="fill:#66c2e0; stroke:none;" d="M95 25L96 26L95 25M108 25L109 26L108 25z"/>
<path style="fill:#eef8fc; stroke:none;" d="M109 25L110 26L109 25z"/>
<path style="fill:#66c2e0; stroke:none;" d="M129 25L130 26L129 25z"/>
<path style="fill:#33add6; stroke:none;" d="M131 25L132 26L131 25z"/>
<path style="fill:#26a8d4; stroke:none;" d="M149 25L150 26L149 25z"/>
<path style="fill:#ddf1f8; stroke:none;" d="M96 26L97 27L96 26z"/>
<path style="fill:#66c2e0; stroke:none;" d="M97 26L98 27L97 26z"/>
<path style="fill:#22a7d3; stroke:none;" d="M109 26L110 27L109 26z"/>
<path style="fill:#bbe4f1; stroke:none;" d="M110 26L111 27L110 26M131 26L132 27L131 26z"/>
<path style="fill:#ddf1f8; stroke:none;" d="M98 27L99 28L98 27z"/>
<path style="fill:#66c2e0; stroke:none;" d="M99 27L100 28L99 27z"/>
<path style="fill:#88cfe7; stroke:none;" d="M111 27L112 28L111 27z"/>
<path style="fill:#33add6; stroke:none;" d="M130 27L131 28L130 27z"/>
<path style="fill:#ccebf5; stroke:none;" d="M100 28L101 29L100 28z"/>
<path style="fill:#44b4da; stroke:none;" d="M101 28L102 29L101 28z"/>
<path style="fill:#66c2e0; stroke:none;" d="M112 28L113 29L112 28z"/>
<path style="fill:#99d6eb; stroke:none;" d="M130 28L131 29L130 28z"/>
<path style="fill:#bbe4f1; stroke:none;" d="M102 29L103 30L102 29z"/>
<path style="fill:#33add6; stroke:none;" d="M103 29L104 30L103 29z"/>
<path style="fill:#66c2e0; stroke:none;" d="M113 29L114 30L113 29z"/>
<path style="fill:#eef8fc; stroke:none;" d="M130 29L131 30L130 29z"/>
<path style="fill:#88cfe7; stroke:none;" d="M104 30L105 31L104 30z"/>
<path style="fill:#11a0cf; stroke:none;" d="M105 30L106 31L105 30z"/>
<path style="fill:#88cfe7; stroke:none;" d="M114 30L115 31L114 30z"/>
<path style="fill:#44b4da; stroke:none;" d="M129 30L130 31L129 30z"/>
<path style="fill:#ccebf5; stroke:none;" d="M105 31L106 32L105 31z"/>
<path style="fill:#33add6; stroke:none;" d="M106 31L109 34L106 31z"/>
<path style="fill:#ddf1f8; stroke:none;" d="M115 31L116 32L115 31z"/>
<path style="fill:#88cfe7; stroke:none;" d="M129 31L130 32L129 31z"/>
<path style="fill:#eef8fc; stroke:none;" d="M106 32L107 33L106 32z"/>
<path style="fill:#66c2e0; stroke:none;" d="M115 32L116 33L115 32z"/>
<path style="fill:#bbe4f1; stroke:none;" d="M129 32L130 33L129 32z"/>
<path style="fill:#eef8fc; stroke:none;" d="M107 33L108 34L107 33z"/>
<path style="fill:#11a0cf; stroke:none;" d="M115 33L116 34L115 33z"/>
<path style="fill:#ccebf5; stroke:none;" d="M129 33L130 34L129 33M108 34L109 35L108 34M116 34L117 35L116 34z"/>
<path style="fill:#66c2e0; stroke:none;" d="M109 35L110 36L109 35z"/>
<path style="fill:#bbe4f1; stroke:none;" d="M116 35L117 36L116 35z"/>
<path style="fill:#aaddee; stroke:none;" d="M109 36L110 37L109 36z"/>
<path style="fill:#88cfe7; stroke:none;" d="M116 36L116 39L117 39L117 38L117 37L116 36z"/>
<path style="fill:#eef8fc; stroke:none;" d="M109 37L110 38L109 37z"/>
<path style="fill:#aaddee; stroke:none;" d="M116 39L117 40L116 39z"/>
<path style="fill:#eef8fc; stroke:none;" d="M109 40L110 41L109 40z"/>
<path style="fill:#bbe4f1; stroke:none;" d="M116 40L117 41L116 40z"/>
<path style="fill:#aaddee; stroke:none;" d="M109 41L110 42L109 41z"/>
<path style="fill:#66c2e0; stroke:none;" d="M109 42L110 43L109 42z"/>
<path style="fill:#55bbdd; stroke:none;" d="M115 42L116 43L115 42z"/>
<path style="fill:#089cce; stroke:none;" d="M206 42L207 43L206 42z"/>
<path style="fill:#ccebf5; stroke:none;" d="M108 43L109 44L108 43z"/>
<path style="fill:#aaddee; stroke:none;" d="M115 43L116 44L115 43z"/>
<path style="fill:#44b4da; stroke:none;" d="M206 43L207 44L206 43z"/>
<path style="fill:#66c2e0; stroke:none;" d="M87 44L88 45L87 44z"/>
<path style="fill:#99d6eb; stroke:none;" d="M88 44L89 45L88 44z"/>
<path style="fill:#eef8fc; stroke:none;" d="M107 44L108 45L107 44z"/>
<path style="fill:#33add6; stroke:none;" d="M108 44L109 45L108 44z"/>
<path style="fill:#44b4da; stroke:none;" d="M114 44L115 45L114 44z"/>
<path style="fill:#88cfe7; stroke:none;" d="M206 44L207 45L206 44z"/>
<path style="fill:#44b4da; stroke:none;" d="M87 45L87 50L88 50L87 45z"/>
<path style="fill:#11a0cf; stroke:none;" d="M89 45L90 46L89 45z"/>
<path style="fill:#77c9e4; stroke:none;" d="M90 45L91 46L90 45z"/>
<path style="fill:#ddf1f8; stroke:none;" d="M91 45L92 46L91 45z"/>
<path style="fill:#bbe4f1; stroke:none;" d="M106 45L107 46L106 45z"/>
<path style="fill:#33add6; stroke:none;" d="M107 45L108 46L107 45z"/>
<path style="fill:#ccebf5; stroke:none;" d="M114 45L115 46L114 45z"/>
<path style="fill:#bbe4f1; stroke:none;" d="M206 45L207 46L206 45z"/>
<path style="fill:#99d6eb; stroke:none;" d="M212 45L213 46L212 45z"/>
<path style="fill:#33add6; stroke:none;" d="M92 46L93 47L92 46z"/>
<path style="fill:#88cfe7; stroke:none;" d="M93 46L94 47L93 46z"/>
<path style="fill:#bbe4f1; stroke:none;" d="M94 46L95 47L94 46M104 46L105 47L104 46z"/>
<path style="fill:#66c2e0; stroke:none;" d="M105 46L106 47L105 46z"/>
<path style="fill:#99d6eb; stroke:none;" d="M113 46L114 47L113 46z"/>
<path style="fill:#ddf1f8; stroke:none;" d="M206 46L207 47L206 46z"/>
<path style="fill:#22a7d3; stroke:none;" d="M212 46L213 47L212 46z"/>
<path style="fill:#eef8fc; stroke:none;" d="M213 46L214 47L213 46z"/>
<path style="fill:#44b4da; stroke:none;" d="M96 47L97 48L96 47z"/>
<path style="fill:#66c2e0; stroke:none;" d="M97 47L98 48L97 47z"/>
<path style="fill:#88cfe7; stroke:none;" d="M98 47L98 48L102 48L102 47L98 47z"/>
<path style="fill:#44b4da; stroke:none;" d="M102 47L103 48L102 47z"/>
<path style="fill:#11a0cf; stroke:none;" d="M103 47L104 48L103 47z"/>
<path style="fill:#99d6eb; stroke:none;" d="M112 47L113 48L112 47z"/>
<path style="fill:#44b4da; stroke:none;" d="M207 47L208 48L207 47z"/>
<path style="fill:#33add6; stroke:none;" d="M213 47L214 48L213 47z"/>
<path style="fill:#aaddee; stroke:none;" d="M214 47L215 48L214 47z"/>
<path style="fill:#eef8fc; stroke:none;" d="M220 47L221 48L220 47z"/>
<path style="fill:#22a7d3; stroke:none;" d="M110 48L111 49L110 48z"/>
<path style="fill:#ccebf5; stroke:none;" d="M111 48L112 49L111 48M207 48L208 49L207 48z"/>
<path style="fill:#44b4da; stroke:none;" d="M216 48L216 49L217 49L218 49L219 49L219 48L218 48L216 48z"/>
<path style="fill:#33add6; stroke:none;" d="M219 48L220 49L219 48z"/>
<path style="fill:#11a0cf; stroke:none;" d="M108 49L109 50L108 49z"/>
<path style="fill:#88cfe7; stroke:none;" d="M109 49L110 50L109 49z"/>
<path style="fill:#eef8fc; stroke:none;" d="M110 49L111 50L110 49z"/>
<path style="fill:#99d6eb; stroke:none;" d="M208 49L209 50L208 49z"/>
<path style="fill:#bbe4f1; stroke:none;" d="M87 50L88 51L87 50z"/>
<path style="fill:#77c9e4; stroke:none;" d="M88 50L89 51L88 50z"/>
<path style="fill:#44b4da; stroke:none;" d="M89 50L90 51L89 50z"/>
<path style="fill:#11a0cf; stroke:none;" d="M105 50L106 51L105 50z"/>
<path style="fill:#55bbdd; stroke:none;" d="M106 50L107 51L106 50z"/>
<path style="fill:#99d6eb; stroke:none;" d="M107 50L108 51L107 50z"/>
<path style="fill:#ccebf5; stroke:none;" d="M209 50L210 51L209 50z"/>
<path style="fill:#55bbdd; stroke:none;" d="M210 50L211 51L210 50z"/>
<path style="fill:#ccebf5; stroke:none;" d="M91 51L92 52L91 51z"/>
<path style="fill:#bbe4f1; stroke:none;" d="M92 51L93 52L92 51z"/>
<path style="fill:#88cfe7; stroke:none;" d="M93.6667 51.3333L94.3333 51.6667L93.6667 51.3333z"/>
<path style="fill:#77c9e4; stroke:none;" d="M95 51L96 52L95 51z"/>
<path style="fill:#44b4da; stroke:none;" d="M96 51L96 52L101 52L101 51L96 51z"/>
<path style="fill:#77c9e4; stroke:none;" d="M101 51L102 52L101 51z"/>
<path style="fill:#88cfe7; stroke:none;" d="M102 51L103 52L102 51z"/>
<path style="fill:#99d6eb; stroke:none;" d="M103 51L104 52L103 51z"/>
<path style="fill:#ccebf5; stroke:none;" d="M104 51L105 52L104 51z"/>
<path style="fill:#eef8fc; stroke:none;" d="M211 51L212 52L211 51z"/>
<path style="fill:#aaddee; stroke:none;" d="M212 51L213 52L212 51z"/>
<path style="fill:#88cfe7; stroke:none;" d="M213 51L214 52L213 51z"/>
<path style="fill:#55bbdd; stroke:none;" d="M214 51L215 52L214 51z"/>
<path style="fill:#44b4da; stroke:none;" d="M215 51L215 52L219 52L219 51L215 51z"/>
<path style="fill:#66c2e0; stroke:none;" d="M219 51L220 52L219 51z"/>
<path style="fill:#88cfe7; stroke:none;" d="M220 51L221 52L220 51z"/>
</svg>
